<svg xmlns="http://www.w3.org/2000/svg" xmlns:xlink="http://www.w3.org/1999/xlink" width="280" height="317" version="1.1" viewBox="0 0 280 317"><title>Rectangle 10 + Arrow Copy 2 + Triangle 1</title><desc>Created with Sketch.</desc><defs><filter id="filter-1" width="200%" height="200%" x="-50%" y="-50%" filterUnits="objectBoundingBox"><feOffset dx="0" dy="2" in="SourceAlpha" result="shadowOffsetOuter1"/><feGaussianBlur in="shadowOffsetOuter1" result="shadowBlurOuter1" stdDeviation="19.5"/><feColorMatrix in="shadowBlurOuter1" result="shadowMatrixOuter1" type="matrix" values="0 0 0 0 0 0 0 0 0 0 0 0 0 0 0 0 0 0 0.10592731 0"/><feMerge><feMergeNode in="shadowMatrixOuter1"/><feMergeNode in="SourceGraphic"/></feMerge></filter></defs><g id="Page-1" fill="none" fill-rule="evenodd" stroke="none" stroke-width="1"><g id="Initial" transform="translate(-447.000000, -460.000000)"><g id="Rectangle-10-+-Arrow-Copy-2-+-Triangle-1" transform="translate(480.000000, 490.000000)"><path id="Rectangle-10" fill="#3C2668" d="M0,7.00302403 C0,3.6876454 2.68109247,1 5.99193397,1 L162.268768,1 L214,52.9824219 L214,246.003155 C214,249.315121 211.313651,252 207.99671,252 L6.00329005,252 C2.68776451,252 0,249.308998 0,245.996976 L0,7.00302403 Z" filter="url(#filter-1)" opacity=".9"/><g id="Arrow-Copy-2" stroke="#FFF" stroke-linecap="round" stroke-linejoin="round" stroke-width="3" transform="translate(106.500000, 131.000000) scale(-1, 1) rotate(-90.000000) translate(-106.500000, -131.000000) translate(62.000000, 108.000000)"><path id="Line" d="M1.53448276,22.5 L87.4804151,22.5 L1.53448276,22.5 Z M60.3176954,45.3233492 L87.9871916,22.1879123 L60.3176954,45.3233492 Z M59.7599705,0.0956816439 L88.0673244,21.9056536 L59.7599705,0.0956816439 Z"/></g><polygon id="Triangle-1" fill="#000" fill-opacity=".281" points="160.246 .5 213.246 53.908 160.246 53.908"/></g></g></g></svg>